<svg width="22" height="24" viewBox="0 0 22 24" fill="none" xmlns="http://www.w3.org/2000/svg">
<path d="M21.1369 23.2166C20.6629 23.6696 20.0299 23.9616 19.3434 23.9744C13.7818 24.0085 8.2198 24.0085 2.65821 23.9744C1.28132 23.9489 0.0436962 22.763 0.0173352 21.3494C-0.0057784 17.7833 -0.0057784 14.2168 0.0173352 10.6507C0.0429321 9.28157 1.23548 8.05217 2.65821 8.02577C8.2198 7.99141 13.7818 7.99141 19.3434 8.02577C20.7252 8.05141 21.9579 9.23676 21.9842 10.6507C22.0053 14.217 22.0053 17.7831 21.9842 21.3494C21.9745 21.8771 21.7923 22.3829 21.4906 22.8074C21.5031 22.9083 21.4479 22.9863 21.3905 23.0624C21.3266 23.1479 21.2362 23.2033 21.1369 23.2166ZM13.7237 16.2915L13.2939 16.7039C12.0167 17.9151 9.84902 17.9665 8.5176 16.7026L8.42381 16.6126L1.63624 22.8794C1.93309 23.0833 2.28763 23.2079 2.66757 23.2149C8.22305 23.2491 13.7785 23.2491 19.334 23.2149C19.7564 23.2071 20.1611 23.0488 20.4866 22.7892L13.7237 16.2915V16.2915ZM1.13653 9.61118C0.920867 9.91117 0.788489 10.2725 0.78123 10.6602C0.758308 14.2201 0.758308 17.7801 0.78123 21.3399C0.787916 21.6982 0.905012 22.0428 1.10119 22.3369L7.87367 16.084L1.13653 9.61118V9.61118ZM20.7873 9.51302L14.2737 15.7637L20.9818 22.2086C21.1275 21.9492 21.2144 21.6538 21.2203 21.3401C21.2412 17.7801 21.2412 14.2201 21.2203 10.66C21.2123 10.2383 21.0503 9.83598 20.7873 9.51302V9.51302ZM20.2001 9.02088C19.9395 8.87658 19.6444 8.79095 19.334 8.78525C13.7869 8.75107 8.23967 8.78506 2.69259 8.78506C2.33366 8.78734 1.98753 8.89822 1.69068 9.08752C4.15009 11.4525 6.59765 13.8297 9.07233 16.1789C10.0685 17.1006 11.7382 17.1294 12.7648 16.156L20.2001 9.02088V9.02088Z" fill="#BE62D5"/>
</svg>
