<svg width="22" height="24" viewBox="0 0 22 24" fill="none" xmlns="http://www.w3.org/2000/svg">
<path d="M14.2834 0H2.71664C1.23229 0 0 1.20843 0 2.69789V21.3021C0 22.7916 1.20428 24 2.71664 24H14.2834C15.7677 24 17 22.7916 17 21.3021V2.69789C17 1.20843 15.7957 0 14.2834 0ZM16.1598 21.3021C16.1598 22.3419 15.3196 23.1569 14.2834 23.1569H2.71664C1.6804 23.1569 0.840198 22.3138 0.840198 21.3021V2.69789C0.840198 1.65808 1.6804 0.843091 2.71664 0.843091H14.2834C15.3196 0.843091 16.1598 1.68618 16.1598 2.69789V21.3021Z" fill="#BE62D5"/>
<path d="M11.9309 2.66978H5.01324C4.78919 2.66978 4.59314 2.86651 4.59314 3.09133C4.59314 3.31615 4.78919 3.51288 5.01324 3.51288H11.9309C12.1549 3.51288 12.351 3.31615 12.351 3.09133C12.351 2.86651 12.1549 2.66978 11.9309 2.66978Z" fill="#BE62D5"/>
<path d="M8.48602 18.7728C7.70184 18.7728 7.08569 19.4192 7.08569 20.178C7.08569 20.5433 7.22573 20.9087 7.50579 21.1616C7.75785 21.4145 8.12194 21.555 8.48602 21.555C9.27021 21.555 9.88635 20.9087 9.88635 20.1499C9.88635 19.3911 9.27021 18.7728 8.48602 18.7728ZM8.51403 20.74C8.374 20.74 8.23396 20.6838 8.12194 20.5714C8.00991 20.459 7.9539 20.3185 7.9539 20.178C7.9539 19.8688 8.20596 19.6159 8.51403 19.6159C8.8221 19.6159 9.07416 19.8688 9.07416 20.178C9.07416 20.4871 8.8221 20.74 8.51403 20.74Z" fill="#BE62D5"/>
</svg>
